# xmcd
#
# Track frame offsets: 
#        150
#        13037
#        24332
#        36975
#        49562
#        60110
#        70670
#        83037
#        95712
#        109275
#        120712
#        135680
#        146487
#        158465
#        169262
#        179225
#        190012
#        205447
#        218265
#        231252
#        245312
#        259205
#        269575
#        281155
#
# Disc length: 3908 seconds
#
# Revision: 1
# Processed by: cddbd v1.5.2PL0 Copyright (c) Steve Scherf et al.
# Submitted via: ExactAudioCopyFreeDBPlugin 1.0
#
DISCID=590f4218
DTITLE=Buddy Johnson - Buddy and Ella Johnson:  1953-1964 [Bear Family b
DTITLE=ox set]
DYEAR=1992
DGENRE=Rhythm and Blues
TTITLE0=Rockin' Time
TTITLE1=They Don't Want Me to Rock No More
TTITLE2=I've Surrendered
TTITLE3=Slide's Mambo
TTITLE4=You're the One for Me
TTITLE5=Don't Shout at Me Daddy
TTITLE6=No! I Ain't Gonna Let You Go
TTITLE7=Don't Turn Your Back on Me
TTITLE8=They All Say I'm the Biggest Fool
TTITLE9=I Cry
TTITLE10=Baby Don't You Cry
TTITLE11=Goodbye Baby Here I Go
TTITLE12=I Don't Care Who Knows
TTITLE13=You'll Get Them Blues
TTITLE14=Stop Pretending
TTITLE15=Please Mr. Johnson
TTITLE16=Since I Fell for You
TTITLE17=I Wonder Where Our Love Has Gone
TTITLE18=Lil' Dog
TTITLE19=Minglin'
TTITLE20=Far Cry
TTITLE21=Lover Bird
TTITLE22=No More
TTITLE23=Buddy's Tune
EXTD=
EXTT0=
EXTT1=
EXTT2=
EXTT3=
EXTT4=
EXTT5=
EXTT6=
EXTT7=
EXTT8=
EXTT9=
EXTT10=
EXTT11=
EXTT12=
EXTT13=
EXTT14=
EXTT15=
EXTT16=
EXTT17=
EXTT18=
EXTT19=
EXTT20=
EXTT21=
EXTT22=
EXTT23=
PLAYORDER=
